# xmcd CD database file
#
# Track frame offsets:
#	150
#	14947
#	27170
#	50413
#	64207
#	91923
#	108490
#	128025
#	151529
#	174745
#	195931
#	221490
#
# Disc length: 3346 seconds
#
# Revision: 0
# Processed by: cddbd v1.5.1PL0 Copyright (c) Steve Scherf et al.
# Submitted via: CDex 1.50beta10
#
DISCID=9c0d100c
DTITLE=Orquesta Aragon - La Charanga Eterna
DYEAR=1999
DGENRE=Salsa
TTITLE0=Asi Son Bonco
TTITLE1=Siboney
TTITLE2=Me Boté De Guano
TTITLE3=No Quiero Llanto
TTITLE4=Arrimate Pa Ca
TTITLE5=Para Sentirme Mejor
TTITLE6=El Paso De Encarnacion
TTITLE7=La Reina Isabel
TTITLE8=Guacharumba
TTITLE9=Mi Son Es Un Vacilon
TTITLE10=Bruca Manigua
TTITLE11=Que Camello Que Salchicha
EXTD=YEAR: 1999
EXTT0=
EXTT1=
EXTT2=
EXTT3=
EXTT4=
EXTT5=
EXTT6=
EXTT7=
EXTT8=
EXTT9=
EXTT10=
EXTT11=
PLAYORDER=
